<?xml version="1.0" encoding="UTF-8" standalone="no"?>
<svg
   xmlns:dc="http://purl.org/dc/elements/1.1/"
   xmlns:cc="http://creativecommons.org/ns#"
   xmlns:rdf="http://www.w3.org/1999/02/22-rdf-syntax-ns#"
   xmlns:svg="http://www.w3.org/2000/svg"
   xmlns="http://www.w3.org/2000/svg"
   xmlns:sodipodi="http://sodipodi.sourceforge.net/DTD/sodipodi-0.dtd"
   xmlns:inkscape="http://www.inkscape.org/namespaces/inkscape"
   width="438"
   height="174"
   viewBox="0 0 438 174"
   fill="none"
   version="1.1"
   id="svg29"
   sodipodi:docname="fail.svg"
   inkscape:version="1.0.2 (e86c870879, 2021-01-15)">
  <metadata
     id="metadata33">
    <rdf:RDF>
      <cc:Work
         rdf:about="">
        <dc:format>image/svg+xml</dc:format>
        <dc:type
           rdf:resource="http://purl.org/dc/dcmitype/StillImage" />
      </cc:Work>
    </rdf:RDF>
  </metadata>
  <sodipodi:namedview
     pagecolor="#ffffff"
     bordercolor="#666666"
     borderopacity="1"
     objecttolerance="10"
     gridtolerance="10"
     guidetolerance="10"
     inkscape:pageopacity="0"
     inkscape:pageshadow="2"
     inkscape:window-width="2560"
     inkscape:window-height="1403"
     id="namedview31"
     showgrid="false"
     inkscape:zoom="3.5114155"
     inkscape:cx="111.11076"
     inkscape:cy="94.055981"
     inkscape:window-x="0"
     inkscape:window-y="0"
     inkscape:window-maximized="1"
     inkscape:current-layer="g18"
     inkscape:document-rotation="0"
     inkscape:snap-bbox="true" />
  <g
     clip-path="url(#clip0)"
     id="g18">
    <rect
       y="42"
       width="438"
       height="132"
       rx="32"
       fill="#F05454"
       id="rect2" />
    <circle
       cx="54.774151"
       cy="103.42131"
       r="6.8291798"
       fill="#af2d2d"
       id="circle10" />
    <circle
       cx="93.890968"
       cy="97.338829"
       r="13"
       fill="#af2d2d"
       id="circle12" />
    <circle
       cx="-10.608489"
       cy="86.733452"
       r="3.4909599"
       transform="rotate(-22.0902)"
       fill="#af2d2d"
       id="circle16" />
    <circle
       cx="95.414421"
       cy="158.5699"
       r="8.6822977"
       fill="#af2d2d"
       id="circle12-6"
       style="stroke-width:0.667869" />
    <path
       id="circle12-3-7"
       style="fill:#af2d2d;fill-opacity:1;stroke-width:3.3296"
       d="m 21.946546,106.02863 a 43.284855,43.284855 0 0 0 -22.0019498,6.00977 v 30.23046 c 0,17.728 14.2719998,32 31.9999998,32 h 25.36718 a 43.284855,43.284855 0 0 0 7.91993,-24.95508 43.284855,43.284855 0 0 0 -43.28516,-43.28515 z" />
  </g>
  <path
     fill-rule="evenodd"
     clip-rule="evenodd"
     d="M67.8057 67.6794C68.1346 67.4706 68.4935 67.3124 68.8667 67.2006C83.012 62.9621 93.3202 49.8448 93.3202 34.32C93.3202 15.3656 77.9546 0 59.0002 0C40.0458 0 24.6802 15.3656 24.6802 34.32C24.6802 47.8227 32.478 59.5042 43.816 65.1068C43.8288 65.1132 43.8236 65.1326 43.8093 65.1315C43.8002 65.1308 43.7932 65.1396 43.796 65.1483L46.904 74.9903C47.6949 77.4949 50.644 78.5705 52.8616 77.1631L67.8057 67.6794Z"
     fill="#AF2D2D"
     id="path20" />
  <path
     d="M68.8137 27.6379C69.6421 26.8095 69.6421 25.4664 68.8137 24.638L68.3622 24.1865C67.5338 23.3581 66.1907 23.3581 65.3623 24.1865L59.0002 30.5486L52.6381 24.1865C51.8097 23.3581 50.4666 23.3581 49.6382 24.1865L49.1867 24.638C48.3583 25.4664 48.3583 26.8095 49.1867 27.6379L55.5488 34L49.1867 40.362C48.3583 41.1904 48.3583 42.5336 49.1867 43.362L49.6382 43.8134C50.4666 44.6419 51.8097 44.6419 52.6381 43.8134L59.0002 37.4514L65.3623 43.8134C66.1907 44.6418 67.5338 44.6419 68.3622 43.8134L68.8137 43.362C69.6421 42.5336 69.6421 41.1904 68.8137 40.362L62.4516 34L68.8137 27.6379Z"
     fill="white"
     id="path22" />
  <defs
     id="defs27">
    <clipPath
       id="clip0">
      <rect
         y="42"
         width="438"
         height="132"
         rx="32"
         fill="white"
         id="rect24" />
    </clipPath>
  </defs>
</svg>
