<?xml version="1.0" encoding="UTF-8" standalone="no"?>
<svg
   xmlns:dc="http://purl.org/dc/elements/1.1/"
   xmlns:cc="http://creativecommons.org/ns#"
   xmlns:rdf="http://www.w3.org/1999/02/22-rdf-syntax-ns#"
   xmlns:svg="http://www.w3.org/2000/svg"
   xmlns="http://www.w3.org/2000/svg"
   xmlns:sodipodi="http://sodipodi.sourceforge.net/DTD/sodipodi-0.dtd"
   xmlns:inkscape="http://www.inkscape.org/namespaces/inkscape"
   width="438"
   height="174"
   viewBox="0 0 438 174"
   fill="none"
   version="1.1"
   id="svg37"
   sodipodi:docname="question.svg"
   inkscape:version="1.0.2 (e86c870879, 2021-01-15)">
  <metadata
     id="metadata41">
    <rdf:RDF>
      <cc:Work
         rdf:about="">
        <dc:format>image/svg+xml</dc:format>
        <dc:type
           rdf:resource="http://purl.org/dc/dcmitype/StillImage" />
      </cc:Work>
    </rdf:RDF>
  </metadata>
  <sodipodi:namedview
     pagecolor="#ffffff"
     bordercolor="#666666"
     borderopacity="1"
     objecttolerance="10"
     gridtolerance="10"
     guidetolerance="10"
     inkscape:pageopacity="0"
     inkscape:pageshadow="2"
     inkscape:window-width="2560"
     inkscape:window-height="1403"
     id="namedview39"
     showgrid="false"
     inkscape:zoom="4.9658914"
     inkscape:cx="-7.6445917"
     inkscape:cy="99.245444"
     inkscape:window-x="0"
     inkscape:window-y="0"
     inkscape:window-maximized="1"
     inkscape:current-layer="g24"
     inkscape:document-rotation="0" />
  <g
     clip-path="url(#clip0)"
     id="g24">
    <rect
       y="42"
       width="438"
       height="132"
       rx="32"
       fill="#B8B5FF"
       id="rect2" />
    <circle
       cx="18"
       cy="126"
       r="11"
       fill="#7868E6"
       id="circle12" />
    <circle
       cx="77.3911"
       cy="118.391"
       r="8.39107"
       fill="#7868E6"
       id="circle14" />
    <circle
       cx="60.5"
       cy="162.5"
       r="11.5"
       fill="#7868E6"
       id="circle16" />
    <circle
       cx="45.1955"
       cy="104.196"
       r="4.19554"
       fill="#7868E6"
       id="circle18" />
    <circle
       cx="22.4715"
       cy="88.0978"
       r="2.09777"
       fill="#7868E6"
       id="circle20" />
    <path
       id="circle22-3"
       d="m 29.332606,149.85027 a 76.145302,76.145302 0 0 0 -26.6757795,4.88476 c 4.90895,11.34642 16.1829395,19.24805 29.3730495,19.24805 h 53.06836 a 76.145302,76.145302 0 0 0 -4.81055,-4.70899 76.145302,76.145302 0 0 0 -50.95508,-19.42382 z"
       style="fill:#7868e6;fill-opacity:1" />
  </g>
  <path
     fill-rule="evenodd"
     clip-rule="evenodd"
     d="M65.5709 68.4064C66.0377 68.0508 66.579 67.8055 67.1492 67.6667C82.1697 64.0087 93.3199 50.4665 93.3199 34.32C93.3199 15.3656 77.9543 0 58.9999 0C40.0455 0 24.6799 15.3656 24.6799 34.32C24.6799 47.018 31.5759 58.1053 41.8272 64.0412C42.5604 64.4658 43.1679 65.0833 43.5393 65.8447L48.2811 75.5654C49.3877 77.8339 52.2928 78.5231 54.3004 76.9935L65.5709 68.4064Z"
     fill="#7868E6"
     id="path26" />
  <ellipse
     cx="58.8213"
     cy="46.8696"
     rx="2.43478"
     ry="2.43478"
     fill="white"
     id="ellipse28" />
  <path
     d="M63.6304 20.4316C61.8412 19.5492 59.8304 19.2173 57.8525 19.4777C55.8745 19.7381 54.0182 20.5791 52.5183 21.8945C51.5445 22.7486 50.7493 23.7776 50.1699 24.9218C49.6493 25.9501 50.3284 27.1095 51.4417 27.4078L52.1136 27.5878C53.2269 27.8861 54.3448 27.1813 55.0532 26.272C55.2544 26.0137 55.4805 25.7737 55.729 25.5557C56.5048 24.8753 57.465 24.4403 58.4881 24.3056C59.5111 24.1709 60.5512 24.3426 61.4767 24.799C62.4022 25.2554 63.1715 25.976 63.6875 26.8696C64.2034 27.7633 64.4428 28.7899 64.3753 29.8196C64.3078 30.8492 63.9365 31.8358 63.3083 32.6545C62.6801 33.4731 61.8233 34.0871 60.8462 34.4188C60.0433 34.6957 59.8273 34.6957 58.9998 34.6957L58.3042 34.6957C57.1516 34.6957 56.2172 35.6301 56.2172 36.7827V40.2609C56.2172 41.4135 57.1516 42.3479 58.3042 42.3479H58.9999C60.1524 42.3479 61.0868 41.4135 61.0868 40.2609C61.0868 39.7503 61.4568 39.3184 61.9473 39.1763C62.0974 39.1329 62.2518 39.0841 62.4114 39.03C64.3006 38.3887 65.9571 37.2016 67.1716 35.6189C68.3861 34.0361 69.104 32.1288 69.2344 30.138C69.3649 28.1473 68.9021 26.1626 67.9046 24.4348C66.9071 22.7071 65.4197 21.314 63.6304 20.4316Z"
     fill="white"
     id="path30" />
  <defs
     id="defs35">
    <clipPath
       id="clip0">
      <rect
         y="42"
         width="438"
         height="132"
         rx="32"
         fill="white"
         id="rect32" />
    </clipPath>
  </defs>
</svg>
