<?xml version="1.0" encoding="UTF-8" standalone="no"?>
<svg
   xmlns:dc="http://purl.org/dc/elements/1.1/"
   xmlns:cc="http://creativecommons.org/ns#"
   xmlns:rdf="http://www.w3.org/1999/02/22-rdf-syntax-ns#"
   xmlns:svg="http://www.w3.org/2000/svg"
   xmlns="http://www.w3.org/2000/svg"
   xmlns:sodipodi="http://sodipodi.sourceforge.net/DTD/sodipodi-0.dtd"
   xmlns:inkscape="http://www.inkscape.org/namespaces/inkscape"
   width="438"
   height="174"
   viewBox="0 0 438 174"
   fill="none"
   version="1.1"
   id="svg27"
   sodipodi:docname="success.svg"
   inkscape:version="1.0.2 (e86c870879, 2021-01-15)">
  <metadata
     id="metadata31">
    <rdf:RDF>
      <cc:Work
         rdf:about="">
        <dc:format>image/svg+xml</dc:format>
        <dc:type
           rdf:resource="http://purl.org/dc/dcmitype/StillImage" />
      </cc:Work>
    </rdf:RDF>
  </metadata>
  <sodipodi:namedview
     pagecolor="#ffffff"
     bordercolor="#666666"
     borderopacity="1"
     objecttolerance="10"
     gridtolerance="10"
     guidetolerance="10"
     inkscape:pageopacity="0"
     inkscape:pageshadow="2"
     inkscape:window-width="2560"
     inkscape:window-height="1403"
     id="namedview29"
     showgrid="false"
     inkscape:zoom="19.863566"
     inkscape:cx="25.182394"
     inkscape:cy="155.16251"
     inkscape:window-x="0"
     inkscape:window-y="0"
     inkscape:window-maximized="1"
     inkscape:current-layer="g16"
     inkscape:document-rotation="0" />
  <g
     clip-path="url(#clip0)"
     id="g16">
    <rect
       y="42"
       width="438"
       height="132"
       rx="32"
       fill="#2D6A4F"
       id="rect2" />
    <circle
       cx="20.6075"
       cy="108.295"
       r="9.29547"
       fill="#004440"
       id="circle6" />
    <circle
       cx="80.0986"
       cy="146.717"
       r="3.71819"
       fill="#004440"
       id="circle8" />
    <path
       id="path10-3"
       d="m 56.14258,97.979022 c -1.90943,-0.02787 -3.85558,0.318756 -5.73633,1.082031 -7.523,3.052997 -11.14705,11.627387 -8.09375,19.150387 1.5166,3.737 2.49256,8.16166 0.38086,11.59766 l -1.06445,1.73242 c -2.8638,4.659 -8.78662,6.27831 -13.98242,4.57031 C 18.86315,133.22543 9.4555199,132.13324 0,133.06886 v 9.06836 c 0,17.72801 14.272,32.00001 32,32.00001 h 36.83594 c -4.3877,-10.47541 -11.12996,-19.28855 -19.375,-26.05079 -4.346,-3.564 -5.95482,-9.78231 -3.01172,-14.57031 2.5209,-4.102 7.78304,-5.45041 12.49414,-6.44141 0.8466,-0.178 1.68963,-0.43253 2.51953,-0.76953 7.523,-3.053 11.1451,-11.62739 8.0918,-19.15039 -2.2899,-5.64225 -7.68381,-9.092167 -13.41211,-9.175778 z"
       style="fill:#004440;fill-opacity:1" />
  </g>
  <path
     fill-rule="evenodd"
     clip-rule="evenodd"
     d="M59.0002 68.64C77.9546 68.64 93.3202 53.2744 93.3202 34.32C93.3202 15.3656 77.9546 0 59.0002 0C40.0458 0 24.6802 15.3656 24.6802 34.32C24.6802 44.9926 29.5517 54.5274 37.1925 60.822C37.2047 60.832 37.1939 60.8515 37.1789 60.8464C37.1698 60.8433 37.1602 60.8501 37.1602 60.8598V71.5042C37.1602 74.4834 40.3004 76.4171 42.9607 75.076L54.9722 69.0212C55.6356 68.6867 56.3788 68.5494 57.1207 68.5894C57.743 68.623 58.3696 68.64 59.0002 68.64Z"
     fill="#004440"
     id="path18" />
  <path
     fill-rule="evenodd"
     clip-rule="evenodd"
     d="M70.3012 24.3464C71.3603 25.1585 71.5625 26.6745 70.7531 27.7357L58.7428 43.4829C58.3193 44.0382 57.6774 44.3832 56.9817 44.4295C56.2861 44.4758 55.6044 44.2189 55.1114 43.7246L47.4884 36.0815C46.5456 35.1363 46.5456 33.6064 47.4884 32.6612C48.4346 31.7124 49.9715 31.7124 50.9177 32.6612L56.5784 38.3368L66.9033 24.7994C67.7155 23.7344 69.2382 23.5314 70.3012 24.3464Z"
     fill="white"
     id="path20" />
  <defs
     id="defs25">
    <clipPath
       id="clip0">
      <rect
         y="42"
         width="438"
         height="132"
         rx="32"
         fill="white"
         id="rect22" />
    </clipPath>
  </defs>
</svg>
