<?xml version="1.0" encoding="UTF-8" standalone="no"?>
<svg
   xmlns:dc="http://purl.org/dc/elements/1.1/"
   xmlns:cc="http://creativecommons.org/ns#"
   xmlns:rdf="http://www.w3.org/1999/02/22-rdf-syntax-ns#"
   xmlns:svg="http://www.w3.org/2000/svg"
   xmlns="http://www.w3.org/2000/svg"
   xmlns:sodipodi="http://sodipodi.sourceforge.net/DTD/sodipodi-0.dtd"
   xmlns:inkscape="http://www.inkscape.org/namespaces/inkscape"
   width="438"
   height="174"
   viewBox="0 0 438 174"
   fill="none"
   version="1.1"
   id="svg29"
   sodipodi:docname="warning.svg"
   inkscape:version="1.0.2 (e86c870879, 2021-01-15)">
  <metadata
     id="metadata33">
    <rdf:RDF>
      <cc:Work
         rdf:about="">
        <dc:format>image/svg+xml</dc:format>
        <dc:type
           rdf:resource="http://purl.org/dc/dcmitype/StillImage" />
      </cc:Work>
    </rdf:RDF>
  </metadata>
  <sodipodi:namedview
     pagecolor="#ffffff"
     bordercolor="#666666"
     borderopacity="1"
     objecttolerance="10"
     gridtolerance="10"
     guidetolerance="10"
     inkscape:pageopacity="0"
     inkscape:pageshadow="2"
     inkscape:window-width="2560"
     inkscape:window-height="1403"
     id="namedview31"
     showgrid="false"
     inkscape:zoom="7.022831"
     inkscape:cx="78.275357"
     inkscape:cy="118.48928"
     inkscape:window-x="0"
     inkscape:window-y="0"
     inkscape:window-maximized="1"
     inkscape:current-layer="g18"
     inkscape:document-rotation="0" />
  <g
     clip-path="url(#clip0)"
     id="g18">
    <rect
       y="42"
       width="438"
       height="132"
       rx="32"
       fill="#FCA652"
       id="rect2" />
    <circle
       cx="83"
       cy="99"
       r="11"
       fill="#CC561E"
       id="circle10" />
    <circle
       cx="70.196342"
       cy="133.5027"
       r="4.1599398"
       fill="#cc561e"
       id="circle12" />
    <circle
       cx="15.178654"
       cy="111.8652"
       r="2.7732899"
       fill="#cc561e"
       id="circle14" />
    <path
       id="path16-3"
       d="m 57.463284,105.81567 c -3.09818,-0.0813 -6.20681,1.17084 -8.40039,3.6914 -3.8996,4.481 -3.42992,11.27383 1.05078,15.17383 1.5599,1.357 2.88467,3.14294 2.88867,5.21094 l 0.002,1.6914 c 0.0082,4.314 -3.53579,7.754 -7.83399,8.125 -14.90794,1.28677 -29.45798,6.9869 -41.5332001,16.97071 5.29795,10.32198 16.0296801,17.35741 28.4726501,17.35741 h 83.033206 c -3.58074,-5.55083 -7.93542,-10.72763 -13.09375,-15.34765 -10.799996,-9.673 -23.615096,-15.66554 -36.908196,-18.06054 -3.58831,-0.647 -6.37582,-3.65479 -6.38282,-7.30079 -0.0067,-3.514 2.82571,-6.33262 5.47461,-8.64062 0.3708,-0.323 0.72259,-0.67759 1.05469,-1.05859 3.8997,-4.481 3.43002,-11.27483 -1.05078,-15.17383 -1.96031,-1.70625 -4.36374,-2.57547 -6.77344,-2.63867 z"
       style="fill:#cc561e;fill-opacity:1" />
  </g>
  <path
     fill-rule="evenodd"
     clip-rule="evenodd"
     d="M58.9999 68.64C77.9543 68.64 93.3199 53.2744 93.3199 34.32C93.3199 15.3656 77.9543 0 58.9999 0C40.0455 0 24.6799 15.3656 24.6799 34.32C24.6799 43.2429 28.0851 51.3705 33.6669 57.4741C34.3862 58.2607 34.8199 59.2749 34.8199 60.3408V73.1872C34.8199 76.1365 37.9029 78.0717 40.5589 76.7894L57.4152 68.6519C57.425 68.6472 57.4248 68.6332 57.4149 68.6288C57.402 68.623 57.4066 68.6037 57.4207 68.6043C57.9442 68.628 58.4706 68.64 58.9999 68.64Z"
     fill="#CC561E"
     id="path20" />
  <path
     fill-rule="evenodd"
     clip-rule="evenodd"
     d="M55.8696 36.5652C55.8696 38.222 57.2128 39.5652 58.8696 39.5652H59.1305C60.7874 39.5652 62.1305 38.222 62.1305 36.5652L62.1305 23.0869C62.1305 21.4301 60.7874 20.0869 59.1305 20.0869H58.8696C57.2128 20.0869 55.8696 21.4301 55.8696 23.0869V36.5652ZM59.0001 47.913C60.729 47.913 62.1305 46.5115 62.1305 44.7826C62.1305 43.0537 60.729 41.6521 59.0001 41.6521C57.2712 41.6521 55.8696 43.0537 55.8696 44.7826C55.8696 46.5115 57.2712 47.913 59.0001 47.913Z"
     fill="white"
     id="path22" />
  <defs
     id="defs27">
    <clipPath
       id="clip0">
      <rect
         y="42"
         width="438"
         height="132"
         rx="32"
         fill="white"
         id="rect24" />
    </clipPath>
  </defs>
</svg>
